M48
;Layer_Color=6321
;FILE_FORMAT=2:4
INCH
;TYPE=PLATED
T1F00S00C0.0320
T2F00S00C0.0400
T3F00S00C0.0409
%
T01
X014400Y018002
X015187
Y018790
Y019577
Y020365
X014400
Y019577
Y018790
Y021152
Y021939
Y022727
Y023514
X015187
Y022727
Y021939
Y021152
Y024302
X014400
Y025089
Y025876
X015187
Y026664
Y027451
Y028239
X014400
Y027451
Y026664
X015187Y025089
Y029026
Y029813
Y030601
X014400
Y029813
Y029026
Y031388
Y032176
X015187
Y031388
Y032963
X014400
Y033750
Y034538
Y035325
Y036113
Y036900
X015187
Y036113
Y035325
Y034538
Y033750
T02
X013300Y013850
X014300
X015300
T03
X011050Y013850
X012050
Y014850
X011050
Y015850
X012050
Y016850
Y017850
Y018850
Y019850
Y020850
Y021850
Y022850
Y023850
Y024850
Y025850
Y026850
Y027850
Y028850
Y029850
Y030850
X011050
Y029850
Y028850
Y027850
Y026850
Y025850
Y024850
Y023850
Y022850
Y021850
Y020850
Y019850
Y018850
Y017850
Y016850
Y031850
X012050
Y032850
Y033850
Y034850
Y035850
Y036850
Y037850
X011050
Y036850
Y035850
Y034850
Y033850
Y032850
M30
