G04 Layer_Color=15132400*
%FSAX24Y24*%
%MOIN*%
G70*
G01*
G75*
%ADD11C,0.0100*%
%ADD18C,0.0079*%
%ADD19C,0.0080*%
D11*
X013100Y034300D02*
X013000Y034200D01*
Y034000D01*
X013100Y033900D01*
X013200D01*
X013300Y034000D01*
Y034200D01*
X013400Y034300D01*
X013500D01*
X013600Y034200D01*
Y034000D01*
X013500Y033900D01*
X013100Y034900D02*
X013000Y034800D01*
Y034600D01*
X013100Y034500D01*
X013500D01*
X013600Y034600D01*
Y034800D01*
X013500Y034900D01*
X013100Y035499D02*
X013000Y035400D01*
Y035200D01*
X013100Y035100D01*
X013200D01*
X013300Y035200D01*
Y035400D01*
X013400Y035499D01*
X013500D01*
X013600Y035400D01*
Y035200D01*
X013500Y035100D01*
X013000Y035699D02*
Y035899D01*
Y035799D01*
X013600D01*
Y035699D01*
Y035899D01*
X013700Y036199D02*
Y036599D01*
X013000Y036799D02*
Y036999D01*
Y036899D01*
X013600D01*
Y036799D01*
Y036999D01*
Y037299D02*
X013000D01*
X013600Y037699D01*
X013000D01*
X012850Y016400D02*
X012750Y016300D01*
Y016100D01*
X012850Y016000D01*
X012950D01*
X013050Y016100D01*
Y016300D01*
X013150Y016400D01*
X013250D01*
X013350Y016300D01*
Y016100D01*
X013250Y016000D01*
X012850Y017000D02*
X012750Y016900D01*
Y016700D01*
X012850Y016600D01*
X013250D01*
X013350Y016700D01*
Y016900D01*
X013250Y017000D01*
X012850Y017599D02*
X012750Y017500D01*
Y017300D01*
X012850Y017200D01*
X012950D01*
X013050Y017300D01*
Y017500D01*
X013150Y017599D01*
X013250D01*
X013350Y017500D01*
Y017300D01*
X013250Y017200D01*
X012750Y017799D02*
Y017999D01*
Y017899D01*
X013350D01*
Y017799D01*
Y017999D01*
X013450Y018299D02*
Y018699D01*
X012750Y019199D02*
Y018999D01*
X012850Y018899D01*
X013250D01*
X013350Y018999D01*
Y019199D01*
X013250Y019299D01*
X012850D01*
X012750Y019199D01*
Y019499D02*
X013250D01*
X013350Y019599D01*
Y019799D01*
X013250Y019899D01*
X012750D01*
Y020099D02*
Y020499D01*
Y020299D01*
X013350D01*
X013400Y015350D02*
Y014750D01*
X013800D01*
X014400Y015350D02*
X014000D01*
Y014750D01*
X014400D01*
X014000Y015050D02*
X014200D01*
X014600Y015350D02*
Y014750D01*
X014900D01*
X014999Y014850D01*
Y015250D01*
X014900Y015350D01*
X014600D01*
D18*
X015790Y016493D02*
Y017540D01*
X015939D02*
Y037363D01*
X015790D02*
X015939D01*
X015790D02*
Y038410D01*
Y016493D02*
X018069D01*
X015790Y038410D02*
X018069D01*
X015790Y017540D02*
X015939D01*
X018069Y016493D02*
Y038410D01*
X012800Y013600D02*
Y014100D01*
X010576Y013250D02*
X012524D01*
X010576D02*
Y038450D01*
X012524D01*
Y013250D02*
Y038450D01*
D19*
X013550Y013350D02*
X013800Y013600D01*
X013050Y013350D02*
X013550D01*
X012800Y013600D02*
X013050Y013350D01*
X012800Y014100D02*
X013050Y014350D01*
X013550D01*
X013800Y014100D01*
X015050Y013350D02*
X015550D01*
X014800Y013600D02*
X015050Y013350D01*
X014800Y014100D02*
X015050Y014350D01*
X014550Y013350D02*
X014800Y013600D01*
X014050Y013350D02*
X014550D01*
X013800Y013600D02*
X014050Y013350D01*
X013800Y014100D02*
X014050Y014350D01*
X014550D01*
X014800Y014100D01*
X015800Y013600D02*
Y014100D01*
X015550Y013350D02*
X015800Y013600D01*
X015550Y014350D02*
X015800Y014100D01*
X015050Y014350D02*
X015550D01*
M02*
