G04 Layer_Physical_Order=2*
G04 Layer_Color=11436288*
%FSAX24Y24*%
%MOIN*%
G70*
G01*
G75*
%ADD10C,0.0060*%
%ADD12C,0.0532*%
%ADD13R,0.0532X0.0532*%
%ADD14R,0.0600X0.0600*%
%ADD15C,0.0600*%
%ADD16R,0.0610X0.0610*%
%ADD17C,0.0610*%
G36*
X015850Y013150D02*
X010300D01*
Y038650D01*
X011653D01*
X011667Y038620D01*
X011670Y038600D01*
X011237Y038167D01*
X011234Y038169D01*
X011145Y038206D01*
X011050Y038218D01*
X010955Y038206D01*
X010866Y038169D01*
X010790Y038110D01*
X010731Y038034D01*
X010694Y037945D01*
X010682Y037850D01*
X010694Y037755D01*
X010731Y037666D01*
X010790Y037590D01*
X010866Y037531D01*
X010955Y037494D01*
X011050Y037482D01*
X011145Y037494D01*
X011234Y037531D01*
X011310Y037590D01*
X011369Y037666D01*
X011406Y037755D01*
X011418Y037850D01*
X011406Y037945D01*
X011369Y038034D01*
X011367Y038037D01*
X011602Y038272D01*
X011629Y038255D01*
X011633Y038252D01*
X011637Y038249D01*
X011642Y038246D01*
X011645Y038244D01*
Y038244D01*
Y038236D01*
X011645Y038210D01*
Y038206D01*
Y038206D01*
Y037900D01*
X012000D01*
Y038255D01*
X011694D01*
X011694D01*
X011690Y038255D01*
X011664Y038255D01*
X011656D01*
X011656D01*
X011654Y038258D01*
X011651Y038263D01*
X011648Y038267D01*
X011645Y038271D01*
X011628Y038298D01*
X011778Y038448D01*
X013037D01*
X013408Y038077D01*
Y031905D01*
X013415Y031870D01*
X013435Y031840D01*
X013560Y031715D01*
X013590Y031695D01*
X013625Y031688D01*
X014115D01*
X014131Y031638D01*
X014081Y031573D01*
X014044Y031484D01*
X014038Y031438D01*
X014762D01*
X014756Y031484D01*
X014719Y031573D01*
X014669Y031638D01*
X014685Y031688D01*
X014758D01*
X014900Y031546D01*
X014870Y031473D01*
X014859Y031388D01*
X014870Y031303D01*
X014903Y031224D01*
X014955Y031156D01*
X015023Y031104D01*
X015102Y031071D01*
X015187Y031060D01*
X015272Y031071D01*
X015352Y031104D01*
X015420Y031156D01*
X015472Y031224D01*
X015505Y031303D01*
X015516Y031388D01*
X015505Y031473D01*
X015472Y031552D01*
X015420Y031621D01*
X015352Y031673D01*
X015272Y031706D01*
X015187Y031717D01*
X015102Y031706D01*
X015030Y031676D01*
X014860Y031845D01*
X014831Y031865D01*
X014796Y031872D01*
X014679D01*
X014666Y031922D01*
X014719Y031991D01*
X014756Y032080D01*
X014762Y032126D01*
X014038D01*
X014044Y032080D01*
X014081Y031991D01*
X014134Y031922D01*
X014121Y031872D01*
X013663D01*
X013592Y031943D01*
Y038115D01*
X013585Y038150D01*
X013565Y038180D01*
X013145Y038600D01*
X013148Y038620D01*
X013162Y038650D01*
X015850D01*
Y013150D01*
D02*
G37*
%LPC*%
G36*
X014762Y025826D02*
X014450D01*
Y025514D01*
X014495Y025520D01*
X014584Y025557D01*
X014661Y025616D01*
X014719Y025692D01*
X014756Y025781D01*
X014762Y025826D01*
D02*
G37*
G36*
X014350D02*
X014038D01*
X014044Y025781D01*
X014081Y025692D01*
X014139Y025616D01*
X014216Y025557D01*
X014305Y025520D01*
X014350Y025514D01*
Y025826D01*
D02*
G37*
G36*
X012452Y015800D02*
X012100D01*
Y015448D01*
X012156Y015455D01*
X012254Y015496D01*
X012339Y015561D01*
X012404Y015646D01*
X012445Y015744D01*
X012452Y015800D01*
D02*
G37*
G36*
X012100Y015252D02*
Y014900D01*
X012452D01*
X012445Y014956D01*
X012404Y015054D01*
X012339Y015139D01*
X012254Y015204D01*
X012156Y015245D01*
X012100Y015252D01*
D02*
G37*
G36*
X012000Y015800D02*
X011648D01*
X011655Y015744D01*
X011696Y015646D01*
X011761Y015561D01*
X011846Y015496D01*
X011944Y015455D01*
X012000Y015448D01*
Y015800D01*
D02*
G37*
G36*
X012452Y025800D02*
X012100D01*
Y025448D01*
X012156Y025455D01*
X012254Y025496D01*
X012339Y025561D01*
X012404Y025646D01*
X012445Y025744D01*
X012452Y025800D01*
D02*
G37*
G36*
X012100Y025252D02*
Y024900D01*
X012452D01*
X012445Y024956D01*
X012404Y025054D01*
X012339Y025139D01*
X012254Y025204D01*
X012156Y025245D01*
X012100Y025252D01*
D02*
G37*
G36*
X012000D02*
X011944Y025245D01*
X011846Y025204D01*
X011761Y025139D01*
X011696Y025054D01*
X011655Y024956D01*
X011648Y024900D01*
X012000D01*
Y025252D01*
D02*
G37*
G36*
X011100D02*
Y024900D01*
X011452D01*
X011445Y024956D01*
X011404Y025054D01*
X011339Y025139D01*
X011254Y025204D01*
X011156Y025245D01*
X011100Y025252D01*
D02*
G37*
G36*
X012000Y025800D02*
X011648D01*
X011655Y025744D01*
X011696Y025646D01*
X011761Y025561D01*
X011846Y025496D01*
X011944Y025455D01*
X012000Y025448D01*
Y025800D01*
D02*
G37*
G36*
X014450Y025451D02*
Y025139D01*
X014762D01*
X014756Y025184D01*
X014719Y025273D01*
X014661Y025350D01*
X014584Y025408D01*
X014495Y025445D01*
X014450Y025451D01*
D02*
G37*
G36*
X014350D02*
X014305Y025445D01*
X014216Y025408D01*
X014139Y025350D01*
X014081Y025273D01*
X014044Y025184D01*
X014038Y025139D01*
X014350D01*
Y025451D01*
D02*
G37*
G36*
Y028601D02*
X014305Y028595D01*
X014216Y028558D01*
X014139Y028499D01*
X014081Y028423D01*
X014044Y028334D01*
X014038Y028289D01*
X014350D01*
Y028601D01*
D02*
G37*
G36*
X013300Y014213D02*
X013206Y014201D01*
X013118Y014164D01*
X013043Y014107D01*
X012986Y014032D01*
X012949Y013944D01*
X012937Y013850D01*
X012949Y013756D01*
X012986Y013668D01*
X013043Y013593D01*
X013118Y013536D01*
X013206Y013499D01*
X013300Y013487D01*
X013394Y013499D01*
X013482Y013536D01*
X013557Y013593D01*
X013614Y013668D01*
X013651Y013756D01*
X013663Y013850D01*
X013651Y013944D01*
X013614Y014032D01*
X013557Y014107D01*
X013482Y014164D01*
X013394Y014201D01*
X013300Y014213D01*
D02*
G37*
G36*
X014300D02*
X014206Y014201D01*
X014118Y014164D01*
X014043Y014107D01*
X013986Y014032D01*
X013949Y013944D01*
X013937Y013850D01*
X013949Y013756D01*
X013986Y013668D01*
X014043Y013593D01*
X014118Y013536D01*
X014206Y013499D01*
X014300Y013487D01*
X014394Y013499D01*
X014482Y013536D01*
X014557Y013593D01*
X014614Y013668D01*
X014651Y013756D01*
X014663Y013850D01*
X014651Y013944D01*
X014614Y014032D01*
X014557Y014107D01*
X014482Y014164D01*
X014394Y014201D01*
X014300Y014213D01*
D02*
G37*
G36*
X015250Y013800D02*
X014900D01*
Y013450D01*
X015250D01*
Y013800D01*
D02*
G37*
G36*
X015700D02*
X015350D01*
Y013450D01*
X015700D01*
Y013800D01*
D02*
G37*
G36*
X014450Y028601D02*
Y028289D01*
X014762D01*
X014756Y028334D01*
X014719Y028423D01*
X014661Y028499D01*
X014584Y028558D01*
X014495Y028595D01*
X014450Y028601D01*
D02*
G37*
G36*
X012000Y014252D02*
X011944Y014245D01*
X011846Y014204D01*
X011761Y014139D01*
X011696Y014054D01*
X011655Y013956D01*
X011648Y013900D01*
X012000D01*
Y014252D01*
D02*
G37*
G36*
Y014800D02*
X011648D01*
X011655Y014744D01*
X011696Y014646D01*
X011761Y014561D01*
X011846Y014496D01*
X011944Y014455D01*
X012000Y014448D01*
Y014800D01*
D02*
G37*
G36*
X012452D02*
X012100D01*
Y014448D01*
X012156Y014455D01*
X012254Y014496D01*
X012339Y014561D01*
X012404Y014646D01*
X012445Y014744D01*
X012452Y014800D01*
D02*
G37*
G36*
X012000Y015252D02*
X011944Y015245D01*
X011846Y015204D01*
X011761Y015139D01*
X011696Y015054D01*
X011655Y014956D01*
X011648Y014900D01*
X012000D01*
Y015252D01*
D02*
G37*
G36*
X012100Y014252D02*
Y013900D01*
X012452D01*
X012445Y013956D01*
X012404Y014054D01*
X012339Y014139D01*
X012254Y014204D01*
X012156Y014245D01*
X012100Y014252D01*
D02*
G37*
G36*
X015250Y014250D02*
X014900D01*
Y013900D01*
X015250D01*
Y014250D01*
D02*
G37*
G36*
X015700D02*
X015350D01*
Y013900D01*
X015700D01*
Y014250D01*
D02*
G37*
G36*
X011000Y025252D02*
X010944Y025245D01*
X010846Y025204D01*
X010761Y025139D01*
X010696Y025054D01*
X010655Y024956D01*
X010648Y024900D01*
X011000D01*
Y025252D01*
D02*
G37*
G36*
Y023800D02*
X010648D01*
X010655Y023744D01*
X010696Y023646D01*
X010761Y023561D01*
X010846Y023496D01*
X010944Y023455D01*
X011000Y023448D01*
Y023800D01*
D02*
G37*
G36*
X015187Y023843D02*
X015102Y023832D01*
X015023Y023799D01*
X014955Y023746D01*
X014903Y023678D01*
X014870Y023599D01*
X014859Y023514D01*
X014870Y023429D01*
X014900Y023357D01*
X014765Y023222D01*
X014636D01*
X014619Y023272D01*
X014632Y023282D01*
X014685Y023350D01*
X014717Y023429D01*
X014729Y023514D01*
X014717Y023599D01*
X014685Y023678D01*
X014632Y023746D01*
X014564Y023799D01*
X014485Y023832D01*
X014400Y023843D01*
X014315Y023832D01*
X014236Y023799D01*
X014168Y023746D01*
X014115Y023678D01*
X014085Y023606D01*
X013554D01*
X013525Y023600D01*
X013519Y023599D01*
X013489Y023579D01*
X013352Y023442D01*
X012254D01*
X012244Y023492D01*
X012254Y023496D01*
X012339Y023561D01*
X012404Y023646D01*
X012445Y023744D01*
X012452Y023800D01*
X011648D01*
X011655Y023744D01*
X011696Y023646D01*
X011761Y023561D01*
X011846Y023496D01*
X011856Y023492D01*
X011846Y023442D01*
X011550D01*
X011515Y023435D01*
X011485Y023415D01*
X011237Y023167D01*
X011234Y023169D01*
X011145Y023206D01*
X011050Y023218D01*
X010955Y023206D01*
X010866Y023169D01*
X010790Y023110D01*
X010731Y023034D01*
X010694Y022945D01*
X010682Y022850D01*
X010694Y022755D01*
X010731Y022666D01*
X010790Y022590D01*
X010866Y022531D01*
X010955Y022494D01*
X011050Y022482D01*
X011145Y022494D01*
X011234Y022531D01*
X011310Y022590D01*
X011369Y022666D01*
X011406Y022755D01*
X011418Y022850D01*
X011406Y022945D01*
X011369Y023034D01*
X011367Y023037D01*
X011588Y023258D01*
X011846D01*
X011856Y023208D01*
X011846Y023204D01*
X011761Y023139D01*
X011696Y023054D01*
X011655Y022956D01*
X011648Y022900D01*
X012452D01*
X012445Y022956D01*
X012404Y023054D01*
X012339Y023139D01*
X012254Y023204D01*
X012244Y023208D01*
X012254Y023258D01*
X013390D01*
X013425Y023265D01*
X013455Y023285D01*
X013592Y023422D01*
X014085D01*
X014115Y023350D01*
X014168Y023282D01*
X014181Y023272D01*
X014164Y023222D01*
X013900D01*
X013871Y023216D01*
X013865Y023215D01*
X013835Y023195D01*
X012507Y021867D01*
X012454Y021885D01*
X012445Y021956D01*
X012404Y022054D01*
X012339Y022139D01*
X012254Y022204D01*
X012156Y022245D01*
X012100Y022252D01*
Y021850D01*
X012050D01*
Y021800D01*
X011648D01*
X011655Y021744D01*
X011696Y021646D01*
X011761Y021561D01*
X011846Y021496D01*
X011944Y021455D01*
X011983Y021450D01*
X011979Y021400D01*
X011508D01*
X011473Y021393D01*
X011444Y021373D01*
X011237Y021167D01*
X011234Y021169D01*
X011145Y021206D01*
X011050Y021218D01*
X010955Y021206D01*
X010866Y021169D01*
X010790Y021110D01*
X010731Y021034D01*
X010694Y020945D01*
X010682Y020850D01*
X010694Y020755D01*
X010731Y020666D01*
X010790Y020590D01*
X010866Y020531D01*
X010955Y020494D01*
X011050Y020482D01*
X011145Y020494D01*
X011234Y020531D01*
X011310Y020590D01*
X011369Y020666D01*
X011406Y020755D01*
X011418Y020850D01*
X011406Y020945D01*
X011369Y021034D01*
X011367Y021037D01*
X011546Y021217D01*
X011780D01*
X011797Y021167D01*
X011761Y021139D01*
X011696Y021054D01*
X011655Y020956D01*
X011648Y020900D01*
X012452D01*
X012445Y020956D01*
X012404Y021054D01*
X012339Y021139D01*
X012254Y021204D01*
X012198Y021227D01*
X012186Y021286D01*
X013938Y023038D01*
X014127D01*
X014143Y022991D01*
X014139Y022988D01*
X014081Y022911D01*
X014044Y022822D01*
X014038Y022777D01*
X014762D01*
X014756Y022822D01*
X014719Y022911D01*
X014661Y022988D01*
X014657Y022991D01*
X014673Y023038D01*
X014803D01*
X014838Y023045D01*
X014868Y023065D01*
X015030Y023227D01*
X015102Y023197D01*
X015187Y023186D01*
X015272Y023197D01*
X015352Y023230D01*
X015420Y023282D01*
X015472Y023350D01*
X015505Y023429D01*
X015516Y023514D01*
X015505Y023599D01*
X015472Y023678D01*
X015420Y023746D01*
X015352Y023799D01*
X015272Y023832D01*
X015187Y023843D01*
D02*
G37*
G36*
X012452Y022800D02*
X012100D01*
Y022448D01*
X012156Y022455D01*
X012254Y022496D01*
X012339Y022561D01*
X012404Y022646D01*
X012445Y022744D01*
X012452Y022800D01*
D02*
G37*
G36*
X011100Y024252D02*
Y023900D01*
X011452D01*
X011445Y023956D01*
X011404Y024054D01*
X011339Y024139D01*
X011254Y024204D01*
X011156Y024245D01*
X011100Y024252D01*
D02*
G37*
G36*
X011000D02*
X010944Y024245D01*
X010846Y024204D01*
X010761Y024139D01*
X010696Y024054D01*
X010655Y023956D01*
X010648Y023900D01*
X011000D01*
Y024252D01*
D02*
G37*
G36*
X011452Y023800D02*
X011100D01*
Y023448D01*
X011156Y023455D01*
X011254Y023496D01*
X011339Y023561D01*
X011404Y023646D01*
X011445Y023744D01*
X011452Y023800D01*
D02*
G37*
G36*
X012000Y022800D02*
X011648D01*
X011655Y022744D01*
X011696Y022646D01*
X011761Y022561D01*
X011846Y022496D01*
X011944Y022455D01*
X012000Y022448D01*
Y022800D01*
D02*
G37*
G36*
X014350Y021514D02*
X014305Y021508D01*
X014216Y021471D01*
X014139Y021413D01*
X014081Y021336D01*
X014044Y021247D01*
X014038Y021202D01*
X014350D01*
Y021514D01*
D02*
G37*
G36*
Y021102D02*
X014038D01*
X014044Y021056D01*
X014081Y020968D01*
X014139Y020891D01*
X014216Y020832D01*
X014305Y020796D01*
X014350Y020790D01*
Y021102D01*
D02*
G37*
G36*
X012452Y019800D02*
X012100D01*
Y019448D01*
X012156Y019455D01*
X012254Y019496D01*
X012339Y019561D01*
X012404Y019646D01*
X012445Y019744D01*
X012452Y019800D01*
D02*
G37*
G36*
X015187Y023055D02*
X015102Y023044D01*
X015023Y023011D01*
X014955Y022959D01*
X014903Y022891D01*
X014870Y022812D01*
X014859Y022727D01*
X014870Y022642D01*
X014900Y022569D01*
X014753Y022422D01*
X014677D01*
X014665Y022472D01*
X014719Y022542D01*
X014756Y022631D01*
X014762Y022677D01*
X014038D01*
X014044Y022631D01*
X014081Y022542D01*
X014139Y022466D01*
X014171Y022441D01*
X014167Y022382D01*
X012477Y020692D01*
X012435Y020720D01*
X012445Y020744D01*
X012452Y020800D01*
X011648D01*
X011655Y020744D01*
X011696Y020646D01*
X011738Y020592D01*
X011713Y020542D01*
X011650D01*
X011615Y020535D01*
X011585Y020515D01*
X011237Y020167D01*
X011234Y020169D01*
X011145Y020206D01*
X011050Y020218D01*
X010955Y020206D01*
X010866Y020169D01*
X010790Y020110D01*
X010731Y020034D01*
X010694Y019945D01*
X010682Y019850D01*
X010694Y019755D01*
X010731Y019666D01*
X010790Y019590D01*
X010866Y019531D01*
X010955Y019494D01*
X011050Y019482D01*
X011145Y019494D01*
X011234Y019531D01*
X011310Y019590D01*
X011369Y019666D01*
X011406Y019755D01*
X011408Y019774D01*
X011458Y019771D01*
Y019388D01*
X011237Y019167D01*
X011234Y019169D01*
X011145Y019206D01*
X011050Y019218D01*
X010955Y019206D01*
X010866Y019169D01*
X010790Y019110D01*
X010731Y019034D01*
X010694Y018945D01*
X010682Y018850D01*
X010694Y018755D01*
X010731Y018666D01*
X010790Y018590D01*
X010866Y018531D01*
X010955Y018494D01*
X011050Y018482D01*
X011115Y018490D01*
X011138Y018443D01*
X011037Y018342D01*
X010775D01*
X010740Y018335D01*
X010710Y018315D01*
X010585Y018190D01*
X010565Y018160D01*
X010558Y018125D01*
Y014250D01*
X010565Y014215D01*
X010585Y014185D01*
X010733Y014037D01*
X010731Y014034D01*
X010694Y013945D01*
X010682Y013850D01*
X010694Y013755D01*
X010731Y013666D01*
X010790Y013590D01*
X010866Y013531D01*
X010955Y013494D01*
X011050Y013482D01*
X011145Y013494D01*
X011234Y013531D01*
X011310Y013590D01*
X011369Y013666D01*
X011406Y013755D01*
X011418Y013850D01*
X011406Y013945D01*
X011369Y014034D01*
X011310Y014110D01*
X011234Y014169D01*
X011145Y014206D01*
X011050Y014218D01*
X010955Y014206D01*
X010866Y014169D01*
X010863Y014167D01*
X010742Y014288D01*
Y014574D01*
X010774Y014585D01*
X010792Y014588D01*
X010866Y014531D01*
X010955Y014494D01*
X011050Y014482D01*
X011145Y014494D01*
X011234Y014531D01*
X011310Y014590D01*
X011369Y014666D01*
X011406Y014755D01*
X011418Y014850D01*
X011406Y014945D01*
X011369Y015034D01*
X011310Y015110D01*
X011234Y015169D01*
X011145Y015206D01*
X011050Y015218D01*
X010955Y015206D01*
X010866Y015169D01*
X010792Y015112D01*
X010774Y015115D01*
X010742Y015126D01*
Y015574D01*
X010774Y015585D01*
X010792Y015588D01*
X010866Y015531D01*
X010955Y015494D01*
X011050Y015482D01*
X011145Y015494D01*
X011234Y015531D01*
X011310Y015590D01*
X011369Y015666D01*
X011406Y015755D01*
X011418Y015850D01*
X011406Y015945D01*
X011369Y016034D01*
X011367Y016037D01*
X011613Y016283D01*
X011907D01*
X011917Y016233D01*
X011846Y016204D01*
X011761Y016139D01*
X011696Y016054D01*
X011655Y015956D01*
X011648Y015900D01*
X012452D01*
X012445Y015956D01*
X012404Y016054D01*
X012339Y016139D01*
X012254Y016204D01*
X012183Y016233D01*
X012193Y016283D01*
X015425D01*
X015460Y016290D01*
X015490Y016310D01*
X015615Y016435D01*
X015635Y016465D01*
X015642Y016500D01*
Y020002D01*
X015635Y020037D01*
X015615Y020067D01*
X015475Y020207D01*
X015505Y020280D01*
X015516Y020365D01*
X015505Y020450D01*
X015472Y020529D01*
X015420Y020597D01*
X015352Y020649D01*
X015272Y020682D01*
X015187Y020693D01*
X015102Y020682D01*
X015023Y020649D01*
X014955Y020597D01*
X014942Y020580D01*
X014892Y020597D01*
Y020920D01*
X014942Y020937D01*
X014955Y020920D01*
X015023Y020867D01*
X015102Y020835D01*
X015187Y020823D01*
X015272Y020835D01*
X015352Y020867D01*
X015420Y020920D01*
X015472Y020988D01*
X015505Y021067D01*
X015516Y021152D01*
X015505Y021237D01*
X015472Y021316D01*
X015420Y021384D01*
X015352Y021437D01*
X015272Y021469D01*
X015187Y021481D01*
X015102Y021469D01*
X015023Y021437D01*
X014955Y021384D01*
X014942Y021367D01*
X014892Y021384D01*
Y021514D01*
X015030Y021652D01*
X015102Y021622D01*
X015187Y021611D01*
X015272Y021622D01*
X015352Y021655D01*
X015420Y021707D01*
X015472Y021775D01*
X015505Y021854D01*
X015516Y021939D01*
X015505Y022024D01*
X015472Y022104D01*
X015420Y022172D01*
X015352Y022224D01*
X015272Y022257D01*
X015187Y022268D01*
X015102Y022257D01*
X015023Y022224D01*
X014955Y022172D01*
X014903Y022104D01*
X014870Y022024D01*
X014859Y021939D01*
X014870Y021854D01*
X014900Y021782D01*
X014735Y021617D01*
X014715Y021587D01*
X014708Y021552D01*
Y021429D01*
X014675Y021418D01*
X014658Y021415D01*
X014584Y021471D01*
X014495Y021508D01*
X014450Y021514D01*
Y021152D01*
Y020790D01*
X014495Y020796D01*
X014584Y020832D01*
X014658Y020889D01*
X014675Y020886D01*
X014708Y020875D01*
Y020580D01*
X014658Y020563D01*
X014632Y020597D01*
X014564Y020649D01*
X014485Y020682D01*
X014400Y020693D01*
X014315Y020682D01*
X014236Y020649D01*
X014168Y020597D01*
X014115Y020529D01*
X014083Y020450D01*
X014071Y020365D01*
X014083Y020280D01*
X014113Y020207D01*
X013247Y019342D01*
X011690D01*
X011649Y019349D01*
X011642Y019390D01*
Y019646D01*
X011692Y019656D01*
X011696Y019646D01*
X011761Y019561D01*
X011846Y019496D01*
X011944Y019455D01*
X012000Y019448D01*
Y019850D01*
X012050D01*
Y019900D01*
X012452D01*
X012445Y019956D01*
X012404Y020054D01*
X012347Y020128D01*
X012363Y020178D01*
X012731D01*
X012766Y020185D01*
X012796Y020205D01*
X014242Y021652D01*
X014315Y021622D01*
X014400Y021611D01*
X014485Y021622D01*
X014564Y021655D01*
X014632Y021707D01*
X014685Y021775D01*
X014717Y021854D01*
X014729Y021939D01*
X014717Y022024D01*
X014685Y022104D01*
X014632Y022172D01*
X014611Y022188D01*
X014628Y022238D01*
X014791D01*
X014826Y022245D01*
X014856Y022265D01*
X015030Y022439D01*
X015102Y022409D01*
X015187Y022398D01*
X015272Y022409D01*
X015352Y022442D01*
X015420Y022494D01*
X015472Y022562D01*
X015505Y022642D01*
X015516Y022727D01*
X015505Y022812D01*
X015472Y022891D01*
X015420Y022959D01*
X015352Y023011D01*
X015272Y023044D01*
X015187Y023055D01*
D02*
G37*
G36*
X012000Y022252D02*
X011944Y022245D01*
X011846Y022204D01*
X011761Y022139D01*
X011696Y022054D01*
X011655Y021956D01*
X011648Y021900D01*
X012000D01*
Y022252D01*
D02*
G37*
G36*
X011050Y022218D02*
X010955Y022206D01*
X010866Y022169D01*
X010790Y022110D01*
X010731Y022034D01*
X010694Y021945D01*
X010682Y021850D01*
X010694Y021755D01*
X010731Y021666D01*
X010790Y021590D01*
X010866Y021531D01*
X010955Y021494D01*
X011050Y021482D01*
X011145Y021494D01*
X011234Y021531D01*
X011310Y021590D01*
X011369Y021666D01*
X011406Y021755D01*
X011418Y021850D01*
X011406Y021945D01*
X011369Y022034D01*
X011310Y022110D01*
X011234Y022169D01*
X011145Y022206D01*
X011050Y022218D01*
D02*
G37*
G36*
X012000Y024800D02*
X011648D01*
X011655Y024744D01*
X011696Y024646D01*
X011761Y024561D01*
X011846Y024496D01*
X011944Y024455D01*
X012000Y024448D01*
Y024800D01*
D02*
G37*
G36*
X011452D02*
X011100D01*
Y024448D01*
X011156Y024455D01*
X011254Y024496D01*
X011339Y024561D01*
X011404Y024646D01*
X011445Y024744D01*
X011452Y024800D01*
D02*
G37*
G36*
X011000D02*
X010648D01*
X010655Y024744D01*
X010696Y024646D01*
X010761Y024561D01*
X010846Y024496D01*
X010944Y024455D01*
X011000Y024448D01*
Y024800D01*
D02*
G37*
G36*
X014762Y025039D02*
X014450D01*
Y024727D01*
X014495Y024733D01*
X014584Y024769D01*
X014661Y024828D01*
X014719Y024905D01*
X014756Y024994D01*
X014762Y025039D01*
D02*
G37*
G36*
X014350D02*
X014038D01*
X014044Y024994D01*
X014081Y024905D01*
X014139Y024828D01*
X014216Y024769D01*
X014305Y024733D01*
X014350Y024727D01*
Y025039D01*
D02*
G37*
G36*
X012452Y024800D02*
X012100D01*
Y024448D01*
X012156Y024455D01*
X012254Y024496D01*
X012339Y024561D01*
X012404Y024646D01*
X012445Y024744D01*
X012452Y024800D01*
D02*
G37*
G36*
X014450Y024664D02*
Y024352D01*
X014762D01*
X014756Y024397D01*
X014719Y024486D01*
X014661Y024562D01*
X014584Y024621D01*
X014495Y024658D01*
X014450Y024664D01*
D02*
G37*
G36*
X014350Y024252D02*
X014038D01*
X014044Y024206D01*
X014081Y024117D01*
X014139Y024041D01*
X014216Y023982D01*
X014305Y023945D01*
X014350Y023939D01*
Y024252D01*
D02*
G37*
G36*
X012100Y024252D02*
Y023900D01*
X012452D01*
X012445Y023956D01*
X012404Y024054D01*
X012339Y024139D01*
X012254Y024204D01*
X012156Y024245D01*
X012100Y024252D01*
D02*
G37*
G36*
X012000D02*
X011944Y024245D01*
X011846Y024204D01*
X011761Y024139D01*
X011696Y024054D01*
X011655Y023956D01*
X011648Y023900D01*
X012000D01*
Y024252D01*
D02*
G37*
G36*
X014350Y024664D02*
X014305Y024658D01*
X014216Y024621D01*
X014139Y024562D01*
X014081Y024486D01*
X014044Y024397D01*
X014038Y024352D01*
X014350D01*
Y024664D01*
D02*
G37*
G36*
X015187Y024630D02*
X015102Y024619D01*
X015023Y024586D01*
X014955Y024534D01*
X014903Y024466D01*
X014870Y024387D01*
X014859Y024302D01*
X014870Y024217D01*
X014903Y024137D01*
X014955Y024069D01*
X015023Y024017D01*
X015102Y023984D01*
X015187Y023973D01*
X015272Y023984D01*
X015352Y024017D01*
X015420Y024069D01*
X015472Y024137D01*
X015505Y024217D01*
X015516Y024302D01*
X015505Y024387D01*
X015472Y024466D01*
X015420Y024534D01*
X015352Y024586D01*
X015272Y024619D01*
X015187Y024630D01*
D02*
G37*
G36*
X014762Y024252D02*
X014450D01*
Y023939D01*
X014495Y023945D01*
X014584Y023982D01*
X014661Y024041D01*
X014719Y024117D01*
X014756Y024206D01*
X014762Y024252D01*
D02*
G37*
G36*
X015187Y035654D02*
X015102Y035643D01*
X015023Y035610D01*
X014955Y035558D01*
X014903Y035489D01*
X014870Y035410D01*
X014859Y035325D01*
X014870Y035240D01*
X014903Y035161D01*
X014955Y035093D01*
X015023Y035041D01*
X015102Y035008D01*
X015187Y034997D01*
X015272Y035008D01*
X015352Y035041D01*
X015420Y035093D01*
X015472Y035161D01*
X015505Y035240D01*
X015516Y035325D01*
X015505Y035410D01*
X015472Y035489D01*
X015420Y035558D01*
X015352Y035610D01*
X015272Y035643D01*
X015187Y035654D01*
D02*
G37*
G36*
X014400D02*
X014315Y035643D01*
X014236Y035610D01*
X014168Y035558D01*
X014115Y035489D01*
X014083Y035410D01*
X014071Y035325D01*
X014083Y035240D01*
X014115Y035161D01*
X014168Y035093D01*
X014236Y035041D01*
X014315Y035008D01*
X014400Y034997D01*
X014485Y035008D01*
X014564Y035041D01*
X014632Y035093D01*
X014685Y035161D01*
X014717Y035240D01*
X014729Y035325D01*
X014717Y035410D01*
X014685Y035489D01*
X014632Y035558D01*
X014564Y035610D01*
X014485Y035643D01*
X014400Y035654D01*
D02*
G37*
G36*
X011050Y036218D02*
X010955Y036206D01*
X010866Y036169D01*
X010790Y036110D01*
X010731Y036034D01*
X010694Y035945D01*
X010682Y035850D01*
X010694Y035755D01*
X010731Y035666D01*
X010790Y035590D01*
X010866Y035531D01*
X010955Y035494D01*
X011050Y035482D01*
X011145Y035494D01*
X011234Y035531D01*
X011237Y035533D01*
X011458Y035312D01*
Y034929D01*
X011408Y034926D01*
X011406Y034945D01*
X011369Y035034D01*
X011310Y035110D01*
X011234Y035169D01*
X011145Y035206D01*
X011050Y035218D01*
X010955Y035206D01*
X010866Y035169D01*
X010790Y035110D01*
X010731Y035034D01*
X010694Y034945D01*
X010682Y034850D01*
X010694Y034755D01*
X010731Y034666D01*
X010733Y034663D01*
X010585Y034515D01*
X010565Y034485D01*
X010558Y034450D01*
Y031500D01*
X010565Y031465D01*
X010585Y031435D01*
X010735Y031285D01*
X010765Y031265D01*
X010800Y031258D01*
X010971D01*
X010974Y031208D01*
X010955Y031206D01*
X010866Y031169D01*
X010790Y031110D01*
X010731Y031034D01*
X010694Y030945D01*
X010682Y030850D01*
X010694Y030755D01*
X010731Y030666D01*
X010733Y030663D01*
X010585Y030515D01*
X010565Y030485D01*
X010558Y030450D01*
Y026500D01*
X010565Y026465D01*
X010585Y026435D01*
X010781Y026239D01*
X010811Y026219D01*
X010844Y026212D01*
X010850Y026200D01*
X010857Y026162D01*
X010790Y026110D01*
X010731Y026034D01*
X010694Y025945D01*
X010682Y025850D01*
X010694Y025755D01*
X010731Y025666D01*
X010790Y025590D01*
X010866Y025531D01*
X010955Y025494D01*
X011050Y025482D01*
X011145Y025494D01*
X011234Y025531D01*
X011310Y025590D01*
X011369Y025666D01*
X011406Y025755D01*
X011418Y025850D01*
X011406Y025945D01*
X011369Y026034D01*
X011310Y026110D01*
X011243Y026162D01*
X011250Y026199D01*
X011256Y026212D01*
X011774D01*
X011791Y026162D01*
X011761Y026139D01*
X011696Y026054D01*
X011655Y025956D01*
X011648Y025900D01*
X012452D01*
X012445Y025956D01*
X012404Y026054D01*
X012339Y026139D01*
X012309Y026162D01*
X012326Y026212D01*
X014154D01*
X014171Y026162D01*
X014139Y026137D01*
X014081Y026061D01*
X014044Y025972D01*
X014038Y025926D01*
X014762D01*
X014756Y025972D01*
X014719Y026061D01*
X014661Y026137D01*
X014629Y026162D01*
X014646Y026212D01*
X014722D01*
X014900Y026034D01*
X014870Y025961D01*
X014859Y025876D01*
X014870Y025791D01*
X014903Y025712D01*
X014955Y025644D01*
X015023Y025592D01*
X015102Y025559D01*
X015187Y025548D01*
X015272Y025559D01*
X015352Y025592D01*
X015408Y025635D01*
X015458Y025618D01*
Y025490D01*
X015345Y025376D01*
X015272Y025406D01*
X015187Y025418D01*
X015102Y025406D01*
X015023Y025374D01*
X014955Y025321D01*
X014903Y025253D01*
X014870Y025174D01*
X014859Y025089D01*
X014870Y025004D01*
X014903Y024925D01*
X014955Y024857D01*
X015023Y024804D01*
X015102Y024772D01*
X015187Y024760D01*
X015272Y024772D01*
X015352Y024804D01*
X015420Y024857D01*
X015472Y024925D01*
X015505Y025004D01*
X015516Y025089D01*
X015505Y025174D01*
X015475Y025247D01*
X015615Y025387D01*
X015635Y025416D01*
X015642Y025452D01*
Y027635D01*
X015636Y027664D01*
X015635Y027670D01*
X015615Y027700D01*
X015440Y027875D01*
X015410Y027895D01*
X015375Y027902D01*
X015356D01*
X015346Y027952D01*
X015352Y027954D01*
X015420Y028006D01*
X015472Y028074D01*
X015505Y028154D01*
X015516Y028239D01*
X015505Y028324D01*
X015472Y028403D01*
X015420Y028471D01*
X015352Y028523D01*
X015272Y028556D01*
X015187Y028567D01*
X015102Y028556D01*
X015023Y028523D01*
X014955Y028471D01*
X014903Y028403D01*
X014870Y028324D01*
X014859Y028239D01*
X014870Y028154D01*
X014903Y028074D01*
X014955Y028006D01*
X015023Y027954D01*
X015029Y027952D01*
X015019Y027902D01*
X014644D01*
X014627Y027952D01*
X014661Y027978D01*
X014719Y028054D01*
X014756Y028143D01*
X014762Y028189D01*
X014038D01*
X014044Y028143D01*
X014081Y028054D01*
X014139Y027978D01*
X014173Y027952D01*
X014156Y027902D01*
X013918D01*
X012512Y029308D01*
X012532Y029358D01*
X014150D01*
X014167Y029308D01*
X014139Y029287D01*
X014081Y029210D01*
X014044Y029121D01*
X014038Y029076D01*
X014762D01*
X014756Y029121D01*
X014719Y029210D01*
X014661Y029287D01*
X014633Y029308D01*
X014650Y029358D01*
X014725D01*
X014900Y029184D01*
X014870Y029111D01*
X014859Y029026D01*
X014870Y028941D01*
X014903Y028862D01*
X014955Y028794D01*
X015023Y028741D01*
X015102Y028709D01*
X015187Y028697D01*
X015272Y028709D01*
X015352Y028741D01*
X015420Y028794D01*
X015472Y028862D01*
X015505Y028941D01*
X015516Y029026D01*
X015505Y029111D01*
X015472Y029190D01*
X015420Y029258D01*
X015352Y029311D01*
X015272Y029343D01*
X015187Y029355D01*
X015102Y029343D01*
X015030Y029313D01*
X014828Y029515D01*
X014799Y029535D01*
X014763Y029542D01*
X014716D01*
X014691Y029592D01*
X014719Y029629D01*
X014756Y029718D01*
X014762Y029763D01*
X014038D01*
X014044Y029718D01*
X014081Y029629D01*
X014109Y029592D01*
X014084Y029542D01*
X012387D01*
X012362Y029592D01*
X012404Y029646D01*
X012445Y029744D01*
X012452Y029800D01*
X012050D01*
Y029850D01*
X012000D01*
Y030252D01*
X011944Y030245D01*
X011846Y030204D01*
X011761Y030139D01*
X011696Y030054D01*
X011692Y030044D01*
X011642Y030054D01*
Y030646D01*
X011692Y030656D01*
X011696Y030646D01*
X011761Y030561D01*
X011846Y030496D01*
X011944Y030455D01*
X012000Y030448D01*
Y030850D01*
Y031252D01*
X011944Y031245D01*
X011846Y031204D01*
X011761Y031139D01*
X011696Y031054D01*
X011692Y031044D01*
X011642Y031054D01*
Y031175D01*
X011636Y031204D01*
X011635Y031210D01*
X011615Y031240D01*
X011440Y031415D01*
X011410Y031435D01*
X011375Y031442D01*
X011129D01*
X011126Y031492D01*
X011145Y031494D01*
X011234Y031531D01*
X011310Y031590D01*
X011369Y031666D01*
X011406Y031755D01*
X011418Y031850D01*
X011406Y031945D01*
X011369Y032034D01*
X011310Y032110D01*
X011234Y032169D01*
X011145Y032206D01*
X011050Y032218D01*
X010955Y032206D01*
X010866Y032169D01*
X010792Y032112D01*
X010774Y032115D01*
X010742Y032126D01*
Y032574D01*
X010774Y032585D01*
X010792Y032588D01*
X010866Y032531D01*
X010955Y032494D01*
X011050Y032482D01*
X011145Y032494D01*
X011234Y032531D01*
X011310Y032590D01*
X011369Y032666D01*
X011406Y032755D01*
X011408Y032774D01*
X011458Y032771D01*
Y032500D01*
X011465Y032465D01*
X011485Y032435D01*
X011635Y032285D01*
X011665Y032265D01*
X011700Y032258D01*
X011846D01*
X011856Y032208D01*
X011846Y032204D01*
X011761Y032139D01*
X011696Y032054D01*
X011655Y031956D01*
X011648Y031900D01*
X012452D01*
X012445Y031956D01*
X012404Y032054D01*
X012339Y032139D01*
X012254Y032204D01*
X012244Y032208D01*
X012254Y032258D01*
X012587D01*
X012853Y031992D01*
Y030375D01*
X012860Y030340D01*
X012880Y030310D01*
X013045Y030145D01*
X013075Y030125D01*
X013081Y030124D01*
X013110Y030118D01*
X014123D01*
X014135Y030068D01*
X014081Y029998D01*
X014044Y029909D01*
X014038Y029863D01*
X014762D01*
X014756Y029909D01*
X014719Y029998D01*
X014665Y030068D01*
X014677Y030118D01*
X014753D01*
X014900Y029971D01*
X014870Y029898D01*
X014859Y029813D01*
X014870Y029728D01*
X014903Y029649D01*
X014955Y029581D01*
X015023Y029529D01*
X015102Y029496D01*
X015187Y029485D01*
X015272Y029496D01*
X015352Y029529D01*
X015420Y029581D01*
X015472Y029649D01*
X015505Y029728D01*
X015516Y029813D01*
X015505Y029898D01*
X015472Y029978D01*
X015420Y030046D01*
X015352Y030098D01*
X015272Y030131D01*
X015187Y030142D01*
X015102Y030131D01*
X015030Y030101D01*
X014856Y030275D01*
X014826Y030295D01*
X014791Y030302D01*
X014687D01*
X014670Y030352D01*
X014719Y030416D01*
X014756Y030505D01*
X014762Y030551D01*
X014038D01*
X014044Y030505D01*
X014081Y030416D01*
X014130Y030352D01*
X014113Y030302D01*
X013148D01*
X013037Y030413D01*
Y032030D01*
X013031Y032059D01*
X013030Y032065D01*
X013010Y032095D01*
X012690Y032415D01*
X012660Y032435D01*
X012625Y032442D01*
X012254D01*
X012244Y032492D01*
X012254Y032496D01*
X012339Y032561D01*
X012404Y032646D01*
X012445Y032744D01*
X012452Y032800D01*
X012050D01*
Y032850D01*
X012000D01*
Y033252D01*
X011944Y033245D01*
X011846Y033204D01*
X011761Y033139D01*
X011696Y033054D01*
X011692Y033044D01*
X011642Y033054D01*
Y033646D01*
X011692Y033656D01*
X011696Y033646D01*
X011761Y033561D01*
X011846Y033496D01*
X011944Y033455D01*
X012000Y033448D01*
Y033850D01*
Y034252D01*
X011944Y034245D01*
X011846Y034204D01*
X011761Y034139D01*
X011696Y034054D01*
X011692Y034044D01*
X011642Y034054D01*
Y034646D01*
X011692Y034656D01*
X011696Y034646D01*
X011761Y034561D01*
X011846Y034496D01*
X011944Y034455D01*
X012000Y034448D01*
Y034850D01*
Y035252D01*
X011944Y035245D01*
X011846Y035204D01*
X011761Y035139D01*
X011696Y035054D01*
X011692Y035044D01*
X011642Y035054D01*
Y035350D01*
X011635Y035385D01*
X011615Y035415D01*
X011367Y035663D01*
X011369Y035666D01*
X011406Y035755D01*
X011418Y035850D01*
X011406Y035945D01*
X011369Y036034D01*
X011310Y036110D01*
X011234Y036169D01*
X011145Y036206D01*
X011050Y036218D01*
D02*
G37*
G36*
X014400Y036441D02*
X014315Y036430D01*
X014236Y036397D01*
X014168Y036345D01*
X014115Y036277D01*
X014083Y036198D01*
X014071Y036113D01*
X014083Y036028D01*
X014115Y035948D01*
X014168Y035880D01*
X014236Y035828D01*
X014315Y035795D01*
X014400Y035784D01*
X014485Y035795D01*
X014564Y035828D01*
X014632Y035880D01*
X014685Y035948D01*
X014717Y036028D01*
X014729Y036113D01*
X014717Y036198D01*
X014685Y036277D01*
X014632Y036345D01*
X014564Y036397D01*
X014485Y036430D01*
X014400Y036441D01*
D02*
G37*
G36*
X012452Y035800D02*
X012100D01*
Y035448D01*
X012156Y035455D01*
X012254Y035496D01*
X012339Y035561D01*
X012404Y035646D01*
X012445Y035744D01*
X012452Y035800D01*
D02*
G37*
G36*
X012000D02*
X011648D01*
X011655Y035744D01*
X011696Y035646D01*
X011761Y035561D01*
X011846Y035496D01*
X011944Y035455D01*
X012000Y035448D01*
Y035800D01*
D02*
G37*
G36*
X012100Y035252D02*
Y034900D01*
X012452D01*
X012445Y034956D01*
X012404Y035054D01*
X012339Y035139D01*
X012254Y035204D01*
X012156Y035245D01*
X012100Y035252D01*
D02*
G37*
G36*
Y034252D02*
Y033900D01*
X012452D01*
X012445Y033956D01*
X012404Y034054D01*
X012339Y034139D01*
X012254Y034204D01*
X012156Y034245D01*
X012100Y034252D01*
D02*
G37*
G36*
X012452Y033800D02*
X012100D01*
Y033448D01*
X012156Y033455D01*
X012254Y033496D01*
X012339Y033561D01*
X012404Y033646D01*
X012445Y033744D01*
X012452Y033800D01*
D02*
G37*
G36*
X015187Y034079D02*
X015102Y034068D01*
X015023Y034035D01*
X014955Y033983D01*
X014903Y033915D01*
X014870Y033835D01*
X014859Y033750D01*
X014870Y033665D01*
X014903Y033586D01*
X014955Y033518D01*
X015023Y033466D01*
X015102Y033433D01*
X015187Y033422D01*
X015272Y033433D01*
X015352Y033466D01*
X015420Y033518D01*
X015472Y033586D01*
X015505Y033665D01*
X015516Y033750D01*
X015505Y033835D01*
X015472Y033915D01*
X015420Y033983D01*
X015352Y034035D01*
X015272Y034068D01*
X015187Y034079D01*
D02*
G37*
G36*
X012452Y034800D02*
X012100D01*
Y034448D01*
X012156Y034455D01*
X012254Y034496D01*
X012339Y034561D01*
X012404Y034646D01*
X012445Y034744D01*
X012452Y034800D01*
D02*
G37*
G36*
X015187Y034866D02*
X015102Y034855D01*
X015023Y034822D01*
X014955Y034770D01*
X014903Y034702D01*
X014870Y034623D01*
X014859Y034538D01*
X014870Y034453D01*
X014903Y034374D01*
X014955Y034305D01*
X015023Y034253D01*
X015102Y034220D01*
X015187Y034209D01*
X015272Y034220D01*
X015352Y034253D01*
X015420Y034305D01*
X015472Y034374D01*
X015505Y034453D01*
X015516Y034538D01*
X015505Y034623D01*
X015472Y034702D01*
X015420Y034770D01*
X015352Y034822D01*
X015272Y034855D01*
X015187Y034866D01*
D02*
G37*
G36*
X014400D02*
X014315Y034855D01*
X014236Y034822D01*
X014168Y034770D01*
X014115Y034702D01*
X014083Y034623D01*
X014071Y034538D01*
X014083Y034453D01*
X014115Y034374D01*
X014168Y034305D01*
X014236Y034253D01*
X014315Y034220D01*
X014400Y034209D01*
X014485Y034220D01*
X014564Y034253D01*
X014632Y034305D01*
X014685Y034374D01*
X014717Y034453D01*
X014729Y034538D01*
X014717Y034623D01*
X014685Y034702D01*
X014632Y034770D01*
X014564Y034822D01*
X014485Y034855D01*
X014400Y034866D01*
D02*
G37*
G36*
X012100Y037252D02*
Y036900D01*
X012452D01*
X012445Y036956D01*
X012404Y037054D01*
X012339Y037139D01*
X012254Y037204D01*
X012156Y037245D01*
X012100Y037252D01*
D02*
G37*
G36*
X012000D02*
X011944Y037245D01*
X011846Y037204D01*
X011761Y037139D01*
X011696Y037054D01*
X011655Y036956D01*
X011648Y036900D01*
X012000D01*
Y037252D01*
D02*
G37*
G36*
X014726Y037226D02*
X014074D01*
Y036574D01*
X014726D01*
Y037226D01*
D02*
G37*
G36*
X012100Y038255D02*
Y037900D01*
X012455D01*
Y038255D01*
X012100D01*
D02*
G37*
G36*
X012455Y037800D02*
X012100D01*
Y037445D01*
X012455D01*
Y037800D01*
D02*
G37*
G36*
X012000D02*
X011645D01*
Y037445D01*
X012000D01*
Y037800D01*
D02*
G37*
G36*
X015187Y037229D02*
X015102Y037217D01*
X015023Y037185D01*
X014955Y037132D01*
X014903Y037064D01*
X014870Y036985D01*
X014859Y036900D01*
X014870Y036815D01*
X014903Y036736D01*
X014955Y036668D01*
X015023Y036615D01*
X015102Y036583D01*
X015187Y036571D01*
X015272Y036583D01*
X015352Y036615D01*
X015420Y036668D01*
X015472Y036736D01*
X015505Y036815D01*
X015516Y036900D01*
X015505Y036985D01*
X015472Y037064D01*
X015420Y037132D01*
X015352Y037185D01*
X015272Y037217D01*
X015187Y037229D01*
D02*
G37*
G36*
X012100Y036252D02*
Y035900D01*
X012452D01*
X012445Y035956D01*
X012404Y036054D01*
X012339Y036139D01*
X012254Y036204D01*
X012156Y036245D01*
X012100Y036252D01*
D02*
G37*
G36*
X012000D02*
X011944Y036245D01*
X011846Y036204D01*
X011761Y036139D01*
X011696Y036054D01*
X011655Y035956D01*
X011648Y035900D01*
X012000D01*
Y036252D01*
D02*
G37*
G36*
X015187Y036441D02*
X015102Y036430D01*
X015023Y036397D01*
X014955Y036345D01*
X014903Y036277D01*
X014870Y036198D01*
X014859Y036113D01*
X014870Y036028D01*
X014903Y035948D01*
X014955Y035880D01*
X015023Y035828D01*
X015102Y035795D01*
X015187Y035784D01*
X015272Y035795D01*
X015352Y035828D01*
X015420Y035880D01*
X015472Y035948D01*
X015505Y036028D01*
X015516Y036113D01*
X015505Y036198D01*
X015472Y036277D01*
X015420Y036345D01*
X015352Y036397D01*
X015272Y036430D01*
X015187Y036441D01*
D02*
G37*
G36*
X011050Y037218D02*
X010955Y037206D01*
X010866Y037169D01*
X010790Y037110D01*
X010731Y037034D01*
X010694Y036945D01*
X010682Y036850D01*
X010694Y036755D01*
X010731Y036666D01*
X010790Y036590D01*
X010866Y036531D01*
X010955Y036494D01*
X011050Y036482D01*
X011145Y036494D01*
X011234Y036531D01*
X011310Y036590D01*
X011369Y036666D01*
X011406Y036755D01*
X011418Y036850D01*
X011406Y036945D01*
X011369Y037034D01*
X011310Y037110D01*
X011234Y037169D01*
X011145Y037206D01*
X011050Y037218D01*
D02*
G37*
G36*
X012452Y036800D02*
X012100D01*
Y036448D01*
X012156Y036455D01*
X012254Y036496D01*
X012339Y036561D01*
X012404Y036646D01*
X012445Y036744D01*
X012452Y036800D01*
D02*
G37*
G36*
X012000D02*
X011648D01*
X011655Y036744D01*
X011696Y036646D01*
X011761Y036561D01*
X011846Y036496D01*
X011944Y036455D01*
X012000Y036448D01*
Y036800D01*
D02*
G37*
G36*
X012100Y031252D02*
Y030900D01*
X012452D01*
X012445Y030956D01*
X012404Y031054D01*
X012339Y031139D01*
X012254Y031204D01*
X012156Y031245D01*
X012100Y031252D01*
D02*
G37*
G36*
X014450Y030963D02*
Y030651D01*
X014762D01*
X014756Y030696D01*
X014719Y030785D01*
X014661Y030862D01*
X014584Y030920D01*
X014495Y030957D01*
X014450Y030963D01*
D02*
G37*
G36*
X014350D02*
X014305Y030957D01*
X014216Y030920D01*
X014139Y030862D01*
X014081Y030785D01*
X014044Y030696D01*
X014038Y030651D01*
X014350D01*
Y030963D01*
D02*
G37*
G36*
X012000Y031800D02*
X011648D01*
X011655Y031744D01*
X011696Y031646D01*
X011761Y031561D01*
X011846Y031496D01*
X011944Y031455D01*
X012000Y031448D01*
Y031800D01*
D02*
G37*
G36*
X014762Y031338D02*
X014450D01*
Y031026D01*
X014495Y031032D01*
X014584Y031069D01*
X014661Y031127D01*
X014719Y031204D01*
X014756Y031293D01*
X014762Y031338D01*
D02*
G37*
G36*
X014350D02*
X014038D01*
X014044Y031293D01*
X014081Y031204D01*
X014139Y031127D01*
X014216Y031069D01*
X014305Y031032D01*
X014350Y031026D01*
Y031338D01*
D02*
G37*
G36*
X012452Y030800D02*
X012100D01*
Y030448D01*
X012156Y030455D01*
X012254Y030496D01*
X012339Y030561D01*
X012404Y030646D01*
X012445Y030744D01*
X012452Y030800D01*
D02*
G37*
G36*
X014762Y028976D02*
X014450D01*
Y028664D01*
X014495Y028670D01*
X014584Y028707D01*
X014661Y028765D01*
X014719Y028842D01*
X014756Y028930D01*
X014762Y028976D01*
D02*
G37*
G36*
X014350D02*
X014038D01*
X014044Y028930D01*
X014081Y028842D01*
X014139Y028765D01*
X014216Y028707D01*
X014305Y028670D01*
X014350Y028664D01*
Y028976D01*
D02*
G37*
G36*
X012452Y013800D02*
X012100D01*
Y013448D01*
X012156Y013455D01*
X012254Y013496D01*
X012339Y013561D01*
X012404Y013646D01*
X012445Y013744D01*
X012452Y013800D01*
D02*
G37*
G36*
X015187Y030929D02*
X015102Y030918D01*
X015023Y030885D01*
X014955Y030833D01*
X014903Y030765D01*
X014870Y030686D01*
X014859Y030601D01*
X014870Y030516D01*
X014903Y030436D01*
X014955Y030368D01*
X015023Y030316D01*
X015102Y030283D01*
X015187Y030272D01*
X015272Y030283D01*
X015352Y030316D01*
X015420Y030368D01*
X015472Y030436D01*
X015505Y030516D01*
X015516Y030601D01*
X015505Y030686D01*
X015472Y030765D01*
X015420Y030833D01*
X015352Y030885D01*
X015272Y030918D01*
X015187Y030929D01*
D02*
G37*
G36*
X012100Y030252D02*
Y029900D01*
X012452D01*
X012445Y029956D01*
X012404Y030054D01*
X012339Y030139D01*
X012254Y030204D01*
X012156Y030245D01*
X012100Y030252D01*
D02*
G37*
G36*
X012000Y013800D02*
X011648D01*
X011655Y013744D01*
X011696Y013646D01*
X011761Y013561D01*
X011846Y013496D01*
X011944Y013455D01*
X012000Y013448D01*
Y013800D01*
D02*
G37*
G36*
X015237Y032538D02*
Y032226D01*
X015550D01*
X015544Y032271D01*
X015507Y032360D01*
X015448Y032436D01*
X015372Y032495D01*
X015283Y032532D01*
X015237Y032538D01*
D02*
G37*
G36*
X015137D02*
X015092Y032532D01*
X015003Y032495D01*
X014927Y032436D01*
X014868Y032360D01*
X014831Y032271D01*
X014825Y032226D01*
X015137D01*
Y032538D01*
D02*
G37*
G36*
X014450D02*
Y032226D01*
X014762D01*
X014756Y032271D01*
X014719Y032360D01*
X014661Y032436D01*
X014584Y032495D01*
X014495Y032532D01*
X014450Y032538D01*
D02*
G37*
G36*
X014400Y034079D02*
X014315Y034068D01*
X014236Y034035D01*
X014168Y033983D01*
X014115Y033915D01*
X014083Y033835D01*
X014071Y033750D01*
X014083Y033665D01*
X014115Y033586D01*
X014168Y033518D01*
X014236Y033466D01*
X014315Y033433D01*
X014400Y033422D01*
X014485Y033433D01*
X014564Y033466D01*
X014632Y033518D01*
X014685Y033586D01*
X014717Y033665D01*
X014729Y033750D01*
X014717Y033835D01*
X014685Y033915D01*
X014632Y033983D01*
X014564Y034035D01*
X014485Y034068D01*
X014400Y034079D01*
D02*
G37*
G36*
X015187Y033292D02*
X015102Y033280D01*
X015023Y033248D01*
X014955Y033195D01*
X014903Y033127D01*
X014873Y033055D01*
X014715D01*
X014685Y033127D01*
X014632Y033195D01*
X014564Y033248D01*
X014485Y033280D01*
X014400Y033292D01*
X014315Y033280D01*
X014236Y033248D01*
X014168Y033195D01*
X014115Y033127D01*
X014083Y033048D01*
X014071Y032963D01*
X014083Y032878D01*
X014115Y032799D01*
X014168Y032731D01*
X014236Y032678D01*
X014315Y032646D01*
X014400Y032634D01*
X014485Y032646D01*
X014564Y032678D01*
X014632Y032731D01*
X014685Y032799D01*
X014715Y032871D01*
X014873D01*
X014903Y032799D01*
X014955Y032731D01*
X015023Y032678D01*
X015102Y032646D01*
X015187Y032634D01*
X015272Y032646D01*
X015352Y032678D01*
X015420Y032731D01*
X015472Y032799D01*
X015505Y032878D01*
X015516Y032963D01*
X015505Y033048D01*
X015472Y033127D01*
X015420Y033195D01*
X015352Y033248D01*
X015272Y033280D01*
X015187Y033292D01*
D02*
G37*
G36*
X012100Y033252D02*
Y032900D01*
X012452D01*
X012445Y032956D01*
X012404Y033054D01*
X012339Y033139D01*
X012254Y033204D01*
X012156Y033245D01*
X012100Y033252D01*
D02*
G37*
G36*
X015550Y032126D02*
X015237D01*
Y031813D01*
X015283Y031819D01*
X015372Y031856D01*
X015448Y031915D01*
X015507Y031991D01*
X015544Y032080D01*
X015550Y032126D01*
D02*
G37*
G36*
X015137D02*
X014825D01*
X014831Y032080D01*
X014868Y031991D01*
X014927Y031915D01*
X015003Y031856D01*
X015092Y031819D01*
X015137Y031813D01*
Y032126D01*
D02*
G37*
G36*
X012452Y031800D02*
X012100D01*
Y031448D01*
X012156Y031455D01*
X012254Y031496D01*
X012339Y031561D01*
X012404Y031646D01*
X012445Y031744D01*
X012452Y031800D01*
D02*
G37*
G36*
X014350Y032538D02*
X014305Y032532D01*
X014216Y032495D01*
X014139Y032436D01*
X014081Y032360D01*
X014044Y032271D01*
X014038Y032226D01*
X014350D01*
Y032538D01*
D02*
G37*
%LPD*%
G36*
X014708Y020149D02*
Y019854D01*
X014675Y019843D01*
X014658Y019840D01*
X014584Y019897D01*
X014495Y019933D01*
X014450Y019939D01*
Y019577D01*
Y019215D01*
X014495Y019221D01*
X014584Y019258D01*
X014658Y019314D01*
X014675Y019311D01*
X014708Y019300D01*
Y019067D01*
X014675Y019055D01*
X014658Y019053D01*
X014584Y019109D01*
X014495Y019146D01*
X014450Y019152D01*
Y018790D01*
X014400D01*
Y018740D01*
X014038D01*
X014044Y018694D01*
X014081Y018605D01*
X014129Y018542D01*
X014111Y018492D01*
X012331D01*
X012314Y018542D01*
X012339Y018561D01*
X012404Y018646D01*
X012445Y018744D01*
X012452Y018800D01*
X012050D01*
Y018900D01*
X012452D01*
X012445Y018956D01*
X012404Y019054D01*
X012362Y019108D01*
X012387Y019158D01*
X013285D01*
X013321Y019165D01*
X013350Y019185D01*
X014242Y020077D01*
X014315Y020047D01*
X014400Y020036D01*
X014485Y020047D01*
X014564Y020080D01*
X014632Y020132D01*
X014658Y020166D01*
X014708Y020149D01*
D02*
G37*
G36*
X014074Y021958D02*
X014071Y021939D01*
X014083Y021854D01*
X014113Y021782D01*
X012693Y020362D01*
X012477D01*
X012457Y020412D01*
X014027Y021982D01*
X014074Y021958D01*
D02*
G37*
G36*
X014198Y018258D02*
X014168Y018235D01*
X014115Y018167D01*
X014083Y018087D01*
X014071Y018002D01*
X014083Y017917D01*
X014115Y017838D01*
X014168Y017770D01*
X014236Y017718D01*
X014315Y017685D01*
X014400Y017674D01*
X014485Y017685D01*
X014564Y017718D01*
X014632Y017770D01*
X014685Y017838D01*
X014715Y017911D01*
X014873D01*
X014903Y017838D01*
X014955Y017770D01*
X015023Y017718D01*
X015102Y017685D01*
X015187Y017674D01*
X015272Y017685D01*
X015352Y017718D01*
X015408Y017761D01*
X015458Y017744D01*
Y016538D01*
X015387Y016467D01*
X012298D01*
X012281Y016517D01*
X012339Y016561D01*
X012404Y016646D01*
X012445Y016744D01*
X012452Y016800D01*
X011648D01*
X011655Y016744D01*
X011696Y016646D01*
X011761Y016561D01*
X011819Y016517D01*
X011802Y016467D01*
X011575D01*
X011540Y016460D01*
X011510Y016440D01*
X011237Y016167D01*
X011234Y016169D01*
X011145Y016206D01*
X011050Y016218D01*
X010955Y016206D01*
X010866Y016169D01*
X010792Y016112D01*
X010774Y016115D01*
X010742Y016126D01*
Y016574D01*
X010774Y016585D01*
X010792Y016588D01*
X010866Y016531D01*
X010955Y016494D01*
X011050Y016482D01*
X011145Y016494D01*
X011234Y016531D01*
X011310Y016590D01*
X011369Y016666D01*
X011406Y016755D01*
X011418Y016850D01*
X011406Y016945D01*
X011369Y017034D01*
X011310Y017110D01*
X011234Y017169D01*
X011145Y017206D01*
X011050Y017218D01*
X010955Y017206D01*
X010866Y017169D01*
X010792Y017112D01*
X010774Y017115D01*
X010742Y017126D01*
Y017574D01*
X010774Y017585D01*
X010792Y017588D01*
X010866Y017531D01*
X010955Y017494D01*
X011050Y017482D01*
X011145Y017494D01*
X011234Y017531D01*
X011310Y017590D01*
X011369Y017666D01*
X011406Y017755D01*
X011418Y017850D01*
X011406Y017945D01*
X011369Y018034D01*
X011367Y018037D01*
X011638Y018308D01*
X014181D01*
X014198Y018258D01*
D02*
G37*
G36*
X011458Y030771D02*
Y029929D01*
X011408Y029926D01*
X011406Y029945D01*
X011369Y030034D01*
X011310Y030110D01*
X011234Y030169D01*
X011145Y030206D01*
X011050Y030218D01*
X010955Y030206D01*
X010866Y030169D01*
X010792Y030112D01*
X010774Y030115D01*
X010742Y030126D01*
Y030412D01*
X010863Y030533D01*
X010866Y030531D01*
X010955Y030494D01*
X011050Y030482D01*
X011145Y030494D01*
X011234Y030531D01*
X011310Y030590D01*
X011369Y030666D01*
X011406Y030755D01*
X011408Y030774D01*
X011458Y030771D01*
D02*
G37*
G36*
Y033771D02*
Y032929D01*
X011408Y032926D01*
X011406Y032945D01*
X011369Y033034D01*
X011310Y033110D01*
X011234Y033169D01*
X011145Y033206D01*
X011050Y033218D01*
X010955Y033206D01*
X010866Y033169D01*
X010792Y033112D01*
X010774Y033115D01*
X010742Y033126D01*
Y033574D01*
X010774Y033585D01*
X010792Y033588D01*
X010866Y033531D01*
X010955Y033494D01*
X011050Y033482D01*
X011145Y033494D01*
X011234Y033531D01*
X011310Y033590D01*
X011369Y033666D01*
X011406Y033755D01*
X011408Y033774D01*
X011458Y033771D01*
D02*
G37*
G36*
X010866Y029531D02*
X010955Y029494D01*
X011050Y029482D01*
X011145Y029494D01*
X011234Y029531D01*
X011237Y029533D01*
X011560Y029210D01*
X011590Y029190D01*
X011625Y029183D01*
X011745D01*
X011757Y029133D01*
X011696Y029054D01*
X011655Y028956D01*
X011648Y028900D01*
X012452D01*
X012445Y028956D01*
X012404Y029054D01*
X012370Y029099D01*
X012389Y029156D01*
X012401Y029160D01*
X013815Y027745D01*
X013845Y027725D01*
X013880Y027718D01*
X014081D01*
X014106Y027668D01*
X014081Y027636D01*
X014044Y027547D01*
X014038Y027501D01*
X014762D01*
X014756Y027547D01*
X014719Y027636D01*
X014694Y027668D01*
X014719Y027718D01*
X014923D01*
X014943Y027668D01*
X014903Y027615D01*
X014870Y027536D01*
X014859Y027451D01*
X014870Y027366D01*
X014903Y027287D01*
X014955Y027219D01*
X015023Y027167D01*
X015102Y027134D01*
X015187Y027123D01*
X015272Y027134D01*
X015352Y027167D01*
X015408Y027210D01*
X015458Y027193D01*
Y026922D01*
X015408Y026905D01*
X015352Y026948D01*
X015272Y026981D01*
X015187Y026992D01*
X015102Y026981D01*
X015023Y026948D01*
X014955Y026896D01*
X014903Y026828D01*
X014870Y026749D01*
X014859Y026664D01*
X014870Y026579D01*
X014903Y026500D01*
X014955Y026431D01*
X015023Y026379D01*
X015102Y026346D01*
X015187Y026335D01*
X015272Y026346D01*
X015352Y026379D01*
X015408Y026423D01*
X015458Y026406D01*
Y026134D01*
X015408Y026118D01*
X015352Y026161D01*
X015272Y026194D01*
X015187Y026205D01*
X015102Y026194D01*
X015030Y026164D01*
X014825Y026369D01*
X014795Y026389D01*
X014760Y026396D01*
X014663D01*
X014643Y026446D01*
X014685Y026500D01*
X014717Y026579D01*
X014729Y026664D01*
X014717Y026749D01*
X014685Y026828D01*
X014632Y026896D01*
X014564Y026948D01*
X014485Y026981D01*
X014400Y026992D01*
X014315Y026981D01*
X014236Y026948D01*
X014168Y026896D01*
X014115Y026828D01*
X014083Y026749D01*
X014071Y026664D01*
X014083Y026579D01*
X014115Y026500D01*
X014157Y026446D01*
X014137Y026396D01*
X012085D01*
X012085Y026398D01*
X012015D01*
X012015Y026396D01*
X011085D01*
X011082Y026446D01*
X011156Y026455D01*
X011254Y026496D01*
X011339Y026561D01*
X011404Y026646D01*
X011445Y026744D01*
X011452Y026800D01*
X011050D01*
Y026850D01*
X011000D01*
Y027252D01*
X010944Y027245D01*
X010846Y027204D01*
X010792Y027162D01*
X010742Y027187D01*
Y027513D01*
X010792Y027538D01*
X010846Y027496D01*
X010944Y027455D01*
X011000Y027448D01*
Y027850D01*
Y028252D01*
X010944Y028245D01*
X010846Y028204D01*
X010792Y028162D01*
X010742Y028187D01*
Y028513D01*
X010792Y028538D01*
X010846Y028496D01*
X010944Y028455D01*
X011000Y028448D01*
Y028850D01*
Y029252D01*
X010944Y029245D01*
X010846Y029204D01*
X010792Y029162D01*
X010742Y029187D01*
Y029574D01*
X010774Y029585D01*
X010792Y029588D01*
X010866Y029531D01*
D02*
G37*
G36*
X011458Y034771D02*
Y033929D01*
X011408Y033926D01*
X011406Y033945D01*
X011369Y034034D01*
X011310Y034110D01*
X011234Y034169D01*
X011145Y034206D01*
X011050Y034218D01*
X010955Y034206D01*
X010866Y034169D01*
X010792Y034112D01*
X010774Y034115D01*
X010742Y034126D01*
Y034412D01*
X010863Y034533D01*
X010866Y034531D01*
X010955Y034494D01*
X011050Y034482D01*
X011145Y034494D01*
X011234Y034531D01*
X011310Y034590D01*
X011369Y034666D01*
X011406Y034755D01*
X011408Y034774D01*
X011458Y034771D01*
D02*
G37*
%LPC*%
G36*
X012452Y017800D02*
X012100D01*
Y017448D01*
X012156Y017455D01*
X012254Y017496D01*
X012339Y017561D01*
X012404Y017646D01*
X012445Y017744D01*
X012452Y017800D01*
D02*
G37*
G36*
X012000Y017252D02*
X011944Y017245D01*
X011846Y017204D01*
X011761Y017139D01*
X011696Y017054D01*
X011655Y016956D01*
X011648Y016900D01*
X012000D01*
Y017252D01*
D02*
G37*
G36*
X012100D02*
Y016900D01*
X012452D01*
X012445Y016956D01*
X012404Y017054D01*
X012339Y017139D01*
X012254Y017204D01*
X012156Y017245D01*
X012100Y017252D01*
D02*
G37*
G36*
X012000Y017800D02*
X011648D01*
X011655Y017744D01*
X011696Y017646D01*
X011761Y017561D01*
X011846Y017496D01*
X011944Y017455D01*
X012000Y017448D01*
Y017800D01*
D02*
G37*
G36*
Y018252D02*
X011944Y018245D01*
X011846Y018204D01*
X011761Y018139D01*
X011696Y018054D01*
X011655Y017956D01*
X011648Y017900D01*
X012000D01*
Y018252D01*
D02*
G37*
G36*
X011100Y028252D02*
Y027900D01*
X011452D01*
X011445Y027956D01*
X011404Y028054D01*
X011339Y028139D01*
X011254Y028204D01*
X011156Y028245D01*
X011100Y028252D01*
D02*
G37*
G36*
X012000D02*
X011944Y028245D01*
X011846Y028204D01*
X011761Y028139D01*
X011696Y028054D01*
X011655Y027956D01*
X011648Y027900D01*
X012000D01*
Y028252D01*
D02*
G37*
G36*
X012452Y027800D02*
X012100D01*
Y027448D01*
X012156Y027455D01*
X012254Y027496D01*
X012339Y027561D01*
X012404Y027646D01*
X012445Y027744D01*
X012452Y027800D01*
D02*
G37*
G36*
X011452D02*
X011100D01*
Y027448D01*
X011156Y027455D01*
X011254Y027496D01*
X011339Y027561D01*
X011404Y027646D01*
X011445Y027744D01*
X011452Y027800D01*
D02*
G37*
G36*
X012000D02*
X011648D01*
X011655Y027744D01*
X011696Y027646D01*
X011761Y027561D01*
X011846Y027496D01*
X011944Y027455D01*
X012000Y027448D01*
Y027800D01*
D02*
G37*
G36*
X012452Y028800D02*
X012100D01*
Y028448D01*
X012156Y028455D01*
X012254Y028496D01*
X012339Y028561D01*
X012404Y028646D01*
X012445Y028744D01*
X012452Y028800D01*
D02*
G37*
G36*
X011100Y029252D02*
Y028900D01*
X011452D01*
X011445Y028956D01*
X011404Y029054D01*
X011339Y029139D01*
X011254Y029204D01*
X011156Y029245D01*
X011100Y029252D01*
D02*
G37*
G36*
X012000Y028800D02*
X011648D01*
X011655Y028744D01*
X011696Y028646D01*
X011761Y028561D01*
X011846Y028496D01*
X011944Y028455D01*
X012000Y028448D01*
Y028800D01*
D02*
G37*
G36*
X012100Y028252D02*
Y027900D01*
X012452D01*
X012445Y027956D01*
X012404Y028054D01*
X012339Y028139D01*
X012254Y028204D01*
X012156Y028245D01*
X012100Y028252D01*
D02*
G37*
G36*
X011452Y028800D02*
X011100D01*
Y028448D01*
X011156Y028455D01*
X011254Y028496D01*
X011339Y028561D01*
X011404Y028646D01*
X011445Y028744D01*
X011452Y028800D01*
D02*
G37*
G36*
X014762Y027401D02*
X014450D01*
Y027089D01*
X014495Y027095D01*
X014584Y027132D01*
X014661Y027190D01*
X014719Y027267D01*
X014756Y027356D01*
X014762Y027401D01*
D02*
G37*
G36*
X014350Y019939D02*
X014305Y019933D01*
X014216Y019897D01*
X014139Y019838D01*
X014081Y019762D01*
X014044Y019673D01*
X014038Y019627D01*
X014350D01*
Y019939D01*
D02*
G37*
G36*
X012452Y026800D02*
X012100D01*
Y026448D01*
X012156Y026455D01*
X012254Y026496D01*
X012339Y026561D01*
X012404Y026646D01*
X012445Y026744D01*
X012452Y026800D01*
D02*
G37*
G36*
X014350Y019527D02*
X014038D01*
X014044Y019482D01*
X014081Y019393D01*
X014139Y019316D01*
X014216Y019258D01*
X014305Y019221D01*
X014350Y019215D01*
Y019527D01*
D02*
G37*
G36*
X012100Y018252D02*
Y017900D01*
X012452D01*
X012445Y017956D01*
X012404Y018054D01*
X012339Y018139D01*
X012254Y018204D01*
X012156Y018245D01*
X012100Y018252D01*
D02*
G37*
G36*
X014350Y019152D02*
X014305Y019146D01*
X014216Y019109D01*
X014139Y019051D01*
X014081Y018974D01*
X014044Y018885D01*
X014038Y018840D01*
X014350D01*
Y019152D01*
D02*
G37*
G36*
X012100Y027252D02*
Y026900D01*
X012452D01*
X012445Y026956D01*
X012404Y027054D01*
X012339Y027139D01*
X012254Y027204D01*
X012156Y027245D01*
X012100Y027252D01*
D02*
G37*
G36*
X014350Y027401D02*
X014038D01*
X014044Y027356D01*
X014081Y027267D01*
X014139Y027190D01*
X014216Y027132D01*
X014305Y027095D01*
X014350Y027089D01*
Y027401D01*
D02*
G37*
G36*
X012000Y027252D02*
X011944Y027245D01*
X011846Y027204D01*
X011761Y027139D01*
X011696Y027054D01*
X011655Y026956D01*
X011648Y026900D01*
X012000D01*
Y027252D01*
D02*
G37*
G36*
Y026800D02*
X011648D01*
X011655Y026744D01*
X011696Y026646D01*
X011761Y026561D01*
X011846Y026496D01*
X011944Y026455D01*
X012000Y026448D01*
Y026800D01*
D02*
G37*
G36*
X011100Y027252D02*
Y026900D01*
X011452D01*
X011445Y026956D01*
X011404Y027054D01*
X011339Y027139D01*
X011254Y027204D01*
X011156Y027245D01*
X011100Y027252D01*
D02*
G37*
%LPD*%
D10*
X014400Y018002D02*
X015187D01*
X014400Y032963D02*
X015187D01*
X013554Y023514D02*
X014400D01*
X013390Y023350D02*
X013554Y023514D01*
X011550Y023350D02*
X013390D01*
X011050Y022850D02*
X011550Y023350D01*
X014803Y023130D02*
X015187Y023514D01*
X013900Y023130D02*
X014803D01*
X012078Y021308D02*
X013900Y023130D01*
X011508Y021308D02*
X012078D01*
X011050Y020850D02*
X011508Y021308D01*
X011050Y018850D02*
X011550Y019350D01*
Y020125D01*
X011695Y020270D01*
X012731D01*
X014400Y021939D01*
X014791Y022330D02*
X015187Y022727D01*
X014245Y022330D02*
X014791D01*
X012365Y020450D02*
X014245Y022330D01*
X011650Y020450D02*
X012365D01*
X011050Y019850D02*
X011650Y020450D01*
X011050Y017850D02*
X011600Y018400D01*
X014625D01*
X014800Y018575D01*
Y021552D01*
X015187Y021939D01*
X010650Y030450D02*
X011050Y030850D01*
X010650Y026500D02*
Y030450D01*
Y026500D02*
X010846Y026304D01*
X014760D01*
X015187Y025876D01*
X010650Y034450D02*
X011050Y034850D01*
X010650Y031500D02*
Y034450D01*
Y031500D02*
X010800Y031350D01*
X011375D01*
X011550Y031175D01*
Y029625D02*
Y031175D01*
Y029625D02*
X011725Y029450D01*
X014763D01*
X015187Y029026D01*
X013285Y019250D02*
X014400Y020365D01*
X011650Y019250D02*
X013285D01*
X011450Y019050D02*
X011650Y019250D01*
X011450Y018625D02*
Y019050D01*
X011075Y018250D02*
X011450Y018625D01*
X010775Y018250D02*
X011075D01*
X010650Y018125D02*
X010775Y018250D01*
X010650Y014250D02*
Y018125D01*
Y014250D02*
X011050Y013850D01*
Y029850D02*
X011625Y029275D01*
X012415D01*
X013880Y027810D01*
X015375D01*
X015550Y027635D01*
Y025452D02*
Y027635D01*
X015187Y025089D02*
X015550Y025452D01*
X011050Y035850D02*
X011550Y035350D01*
Y032500D02*
Y035350D01*
Y032500D02*
X011700Y032350D01*
X012625D01*
X012945Y032030D01*
Y030375D02*
Y032030D01*
Y030375D02*
X013110Y030210D01*
X014791D01*
X015187Y029813D01*
X014796Y031780D02*
X015187Y031388D01*
X013625Y031780D02*
X014796D01*
X013500Y031905D02*
X013625Y031780D01*
X013500Y031905D02*
Y038115D01*
X013075Y038540D02*
X013500Y038115D01*
X011740Y038540D02*
X013075D01*
X011050Y037850D02*
X011740Y038540D01*
X015187Y020365D02*
X015550Y020002D01*
Y016500D02*
Y020002D01*
X015425Y016375D02*
X015550Y016500D01*
X011575Y016375D02*
X015425D01*
X011050Y015850D02*
X011575Y016375D01*
D12*
X015187Y018002D02*
D03*
Y018790D02*
D03*
Y019577D02*
D03*
Y020365D02*
D03*
X014400Y018002D02*
D03*
Y018790D02*
D03*
Y019577D02*
D03*
Y020365D02*
D03*
Y023514D02*
D03*
Y022727D02*
D03*
Y021939D02*
D03*
Y021152D02*
D03*
X015187Y023514D02*
D03*
Y022727D02*
D03*
Y021939D02*
D03*
Y021152D02*
D03*
Y025876D02*
D03*
Y026664D02*
D03*
Y027451D02*
D03*
Y028239D02*
D03*
X014400Y025876D02*
D03*
Y026664D02*
D03*
Y027451D02*
D03*
Y028239D02*
D03*
Y025089D02*
D03*
Y024302D02*
D03*
X015187Y025089D02*
D03*
Y024302D02*
D03*
Y032176D02*
D03*
Y032963D02*
D03*
X014400Y032176D02*
D03*
Y032963D02*
D03*
Y036113D02*
D03*
Y035325D02*
D03*
Y034538D02*
D03*
Y033750D02*
D03*
X015187Y036113D02*
D03*
Y035325D02*
D03*
Y034538D02*
D03*
Y033750D02*
D03*
Y036900D02*
D03*
Y029026D02*
D03*
Y029813D02*
D03*
Y030601D02*
D03*
Y031388D02*
D03*
X014400Y029026D02*
D03*
Y029813D02*
D03*
Y030601D02*
D03*
Y031388D02*
D03*
D13*
Y036900D02*
D03*
D14*
X015300Y013850D02*
D03*
D15*
X014300D02*
D03*
X013300D02*
D03*
D16*
X012050Y037850D02*
D03*
D17*
Y036850D02*
D03*
Y035850D02*
D03*
Y034850D02*
D03*
Y033850D02*
D03*
Y032850D02*
D03*
Y031850D02*
D03*
Y030850D02*
D03*
Y029850D02*
D03*
Y028850D02*
D03*
Y027850D02*
D03*
Y026850D02*
D03*
Y025850D02*
D03*
Y024850D02*
D03*
Y023850D02*
D03*
Y022850D02*
D03*
Y021850D02*
D03*
Y020850D02*
D03*
Y019850D02*
D03*
Y018850D02*
D03*
Y017850D02*
D03*
Y016850D02*
D03*
Y015850D02*
D03*
Y014850D02*
D03*
Y013850D02*
D03*
X011050Y037850D02*
D03*
Y036850D02*
D03*
Y035850D02*
D03*
Y034850D02*
D03*
Y033850D02*
D03*
Y032850D02*
D03*
Y031850D02*
D03*
Y030850D02*
D03*
Y029850D02*
D03*
Y028850D02*
D03*
Y027850D02*
D03*
Y026850D02*
D03*
Y025850D02*
D03*
Y024850D02*
D03*
Y023850D02*
D03*
Y022850D02*
D03*
Y021850D02*
D03*
Y020850D02*
D03*
Y019850D02*
D03*
Y018850D02*
D03*
Y017850D02*
D03*
Y016850D02*
D03*
Y015850D02*
D03*
Y014850D02*
D03*
Y013850D02*
D03*
M02*
