G04 Layer_Physical_Order=1*
G04 Layer_Color=25308*
%FSAX24Y24*%
%MOIN*%
G70*
G01*
G75*
%ADD10C,0.0060*%
%ADD11C,0.0100*%
%ADD12C,0.0532*%
%ADD13R,0.0532X0.0532*%
%ADD14R,0.0600X0.0600*%
%ADD15C,0.0600*%
%ADD16R,0.0610X0.0610*%
%ADD17C,0.0610*%
D10*
X013300Y016902D02*
X014400Y018002D01*
X013300Y013850D02*
Y016902D01*
X014300Y013850D02*
X014756Y014306D01*
Y018229D01*
X014625Y018360D02*
X014756Y018229D01*
X011690Y018360D02*
X014625D01*
X011550Y018500D02*
X011690Y018360D01*
X011550Y018500D02*
Y021350D01*
X014830Y018360D02*
X015187Y018002D01*
X014830Y018360D02*
Y023944D01*
X015187Y024302D01*
X011050Y036850D02*
X011550Y036350D01*
X012310D01*
X013730Y034930D01*
X015375D01*
X015550Y034755D01*
Y033565D02*
Y034755D01*
X015375Y033390D02*
X015550Y033565D01*
X014968Y033390D02*
X015375D01*
X014828Y033250D02*
X014968Y033390D01*
X015187Y021152D02*
X015810Y020529D01*
X010650Y013250D02*
Y016450D01*
X011050Y016850D01*
Y032850D02*
X011445Y032455D01*
X011050Y033850D02*
X011565Y033335D01*
X015187Y032963D02*
X015550Y032600D01*
X015187Y024302D02*
X015550Y024664D01*
X010875Y034350D02*
X013403D01*
X013573Y034180D01*
X014830D01*
X015187Y034538D01*
X011050Y014850D02*
X011550Y014350D01*
Y013500D02*
Y014350D01*
X015690Y013370D02*
Y019075D01*
X015187Y019577D02*
X015690Y019075D01*
X010650Y013250D02*
X015810D01*
Y020529D01*
X011550Y013500D02*
X011680Y013370D01*
X015690D01*
X010800Y021400D02*
X011500D01*
X011550Y021350D01*
X014828Y030960D02*
Y033250D01*
Y030960D02*
X015187Y030601D01*
X014826Y028600D02*
X015187Y028239D01*
X014799Y027840D02*
X015187Y027451D01*
X013490Y028600D02*
X014826D01*
X013240Y028350D02*
X013490Y028600D01*
X013220Y027840D02*
X014799D01*
X012730Y027350D02*
X013220Y027840D01*
X011715Y027350D02*
X012730D01*
X011565Y027500D02*
X011715Y027350D01*
X011565Y027500D02*
Y028245D01*
X011445Y028365D02*
X011565Y028245D01*
X014801Y027050D02*
X015187Y026664D01*
X012980Y027050D02*
X014801D01*
X012280Y026350D02*
X012980Y027050D01*
X011250Y028245D02*
X011445Y028050D01*
X011050Y028245D02*
X011250D01*
X010655Y028640D02*
X011050Y028245D01*
X015550Y024664D02*
Y032600D01*
X011700Y028350D02*
X013240D01*
X011565Y028485D02*
X011700Y028350D01*
X011565Y028485D02*
Y033335D01*
X011445Y028365D02*
Y032455D01*
X010655Y028640D02*
Y031455D01*
X011050Y031850D01*
X011445Y026505D02*
Y028050D01*
X010535Y034010D02*
X010875Y034350D01*
X010535Y021665D02*
X010800Y021400D01*
X010535Y021665D02*
Y034010D01*
X011600Y026350D02*
X012280D01*
X011445Y026505D02*
X011600Y026350D01*
D11*
X011050Y026550D02*
Y026850D01*
Y026550D02*
X011750Y025850D01*
X012050D01*
Y015850D02*
Y016850D01*
Y018850D02*
Y019850D01*
D12*
X015187Y018002D02*
D03*
Y018790D02*
D03*
Y019577D02*
D03*
Y020365D02*
D03*
X014400Y018002D02*
D03*
Y018790D02*
D03*
Y019577D02*
D03*
Y020365D02*
D03*
Y023514D02*
D03*
Y022727D02*
D03*
Y021939D02*
D03*
Y021152D02*
D03*
X015187Y023514D02*
D03*
Y022727D02*
D03*
Y021939D02*
D03*
Y021152D02*
D03*
Y025876D02*
D03*
Y026664D02*
D03*
Y027451D02*
D03*
Y028239D02*
D03*
X014400Y025876D02*
D03*
Y026664D02*
D03*
Y027451D02*
D03*
Y028239D02*
D03*
Y025089D02*
D03*
Y024302D02*
D03*
X015187Y025089D02*
D03*
Y024302D02*
D03*
Y032176D02*
D03*
Y032963D02*
D03*
X014400Y032176D02*
D03*
Y032963D02*
D03*
Y036113D02*
D03*
Y035325D02*
D03*
Y034538D02*
D03*
Y033750D02*
D03*
X015187Y036113D02*
D03*
Y035325D02*
D03*
Y034538D02*
D03*
Y033750D02*
D03*
Y036900D02*
D03*
Y029026D02*
D03*
Y029813D02*
D03*
Y030601D02*
D03*
Y031388D02*
D03*
X014400Y029026D02*
D03*
Y029813D02*
D03*
Y030601D02*
D03*
Y031388D02*
D03*
D13*
Y036900D02*
D03*
D14*
X015300Y013850D02*
D03*
D15*
X014300D02*
D03*
X013300D02*
D03*
D16*
X012050Y037850D02*
D03*
D17*
Y036850D02*
D03*
Y035850D02*
D03*
Y034850D02*
D03*
Y033850D02*
D03*
Y032850D02*
D03*
Y031850D02*
D03*
Y030850D02*
D03*
Y029850D02*
D03*
Y028850D02*
D03*
Y027850D02*
D03*
Y026850D02*
D03*
Y025850D02*
D03*
Y024850D02*
D03*
Y023850D02*
D03*
Y022850D02*
D03*
Y021850D02*
D03*
Y020850D02*
D03*
Y019850D02*
D03*
Y018850D02*
D03*
Y017850D02*
D03*
Y016850D02*
D03*
Y015850D02*
D03*
Y014850D02*
D03*
Y013850D02*
D03*
X011050Y037850D02*
D03*
Y036850D02*
D03*
Y035850D02*
D03*
Y034850D02*
D03*
Y033850D02*
D03*
Y032850D02*
D03*
Y031850D02*
D03*
Y030850D02*
D03*
Y029850D02*
D03*
Y028850D02*
D03*
Y027850D02*
D03*
Y026850D02*
D03*
Y025850D02*
D03*
Y024850D02*
D03*
Y023850D02*
D03*
Y022850D02*
D03*
Y021850D02*
D03*
Y020850D02*
D03*
Y019850D02*
D03*
Y018850D02*
D03*
Y017850D02*
D03*
Y016850D02*
D03*
Y015850D02*
D03*
Y014850D02*
D03*
Y013850D02*
D03*
M02*
