G04 Layer_Color=8150272*
%FSAX24Y24*%
%MOIN*%
G70*
G01*
G75*
%ADD20C,0.0612*%
%ADD21R,0.0612X0.0612*%
%ADD22R,0.0680X0.0680*%
%ADD23C,0.0680*%
%ADD24R,0.0690X0.0690*%
%ADD25C,0.0690*%
D20*
X015187Y018002D02*
D03*
Y018790D02*
D03*
Y019577D02*
D03*
Y020365D02*
D03*
X014400Y018002D02*
D03*
Y018790D02*
D03*
Y019577D02*
D03*
Y020365D02*
D03*
Y023514D02*
D03*
Y022727D02*
D03*
Y021939D02*
D03*
Y021152D02*
D03*
X015187Y023514D02*
D03*
Y022727D02*
D03*
Y021939D02*
D03*
Y021152D02*
D03*
Y025876D02*
D03*
Y026664D02*
D03*
Y027451D02*
D03*
Y028239D02*
D03*
X014400Y025876D02*
D03*
Y026664D02*
D03*
Y027451D02*
D03*
Y028239D02*
D03*
Y025089D02*
D03*
Y024302D02*
D03*
X015187Y025089D02*
D03*
Y024302D02*
D03*
Y032176D02*
D03*
Y032963D02*
D03*
X014400Y032176D02*
D03*
Y032963D02*
D03*
Y036113D02*
D03*
Y035325D02*
D03*
Y034538D02*
D03*
Y033750D02*
D03*
X015187Y036113D02*
D03*
Y035325D02*
D03*
Y034538D02*
D03*
Y033750D02*
D03*
Y036900D02*
D03*
Y029026D02*
D03*
Y029813D02*
D03*
Y030601D02*
D03*
Y031388D02*
D03*
X014400Y029026D02*
D03*
Y029813D02*
D03*
Y030601D02*
D03*
Y031388D02*
D03*
D21*
Y036900D02*
D03*
D22*
X015300Y013850D02*
D03*
D23*
X014300D02*
D03*
X013300D02*
D03*
D24*
X012050Y037850D02*
D03*
D25*
Y036850D02*
D03*
Y035850D02*
D03*
Y034850D02*
D03*
Y033850D02*
D03*
Y032850D02*
D03*
Y031850D02*
D03*
Y030850D02*
D03*
Y029850D02*
D03*
Y028850D02*
D03*
Y027850D02*
D03*
Y026850D02*
D03*
Y025850D02*
D03*
Y024850D02*
D03*
Y023850D02*
D03*
Y022850D02*
D03*
Y021850D02*
D03*
Y020850D02*
D03*
Y019850D02*
D03*
Y018850D02*
D03*
Y017850D02*
D03*
Y016850D02*
D03*
Y015850D02*
D03*
Y014850D02*
D03*
Y013850D02*
D03*
X011050Y037850D02*
D03*
Y036850D02*
D03*
Y035850D02*
D03*
Y034850D02*
D03*
Y033850D02*
D03*
Y032850D02*
D03*
Y031850D02*
D03*
Y030850D02*
D03*
Y029850D02*
D03*
Y028850D02*
D03*
Y027850D02*
D03*
Y026850D02*
D03*
Y025850D02*
D03*
Y024850D02*
D03*
Y023850D02*
D03*
Y022850D02*
D03*
Y021850D02*
D03*
Y020850D02*
D03*
Y019850D02*
D03*
Y018850D02*
D03*
Y017850D02*
D03*
Y016850D02*
D03*
Y015850D02*
D03*
Y014850D02*
D03*
Y013850D02*
D03*
M02*
